<?xml version="1.0" standalone="no"?>
<!DOCTYPE svg PUBLIC "-//W3C//DTD SVG 20010904//EN"
 "http://www.w3.org/TR/2001/REC-SVG-20010904/DTD/svg10.dtd">
<svg version="1.0" xmlns="http://www.w3.org/2000/svg"
 width="255.000000pt" height="255.000000pt" viewBox="0 0 255.000000 255.000000"
 preserveAspectRatio="xMidYMid meet">

<g transform="translate(0.000000,255.000000) scale(0.100000,-0.100000)"
fill="#fff" stroke="none">
<path d="M263 2400 c-55 -33 -63 -62 -63 -220 l0 -140 -48 0 c-82 0 -82 2 -82
-281 0 -183 3 -250 13 -263 9 -12 28 -18 62 -19 l50 -2 3 -193 c1 -105 -1
-193 -5 -193 -5 -1 -25 -3 -46 -4 -21 -1 -47 -11 -57 -20 -19 -17 -20 -33 -20
-265 0 -283 -1 -280 83 -280 l47 0 0 -140 c0 -158 8 -187 63 -220 31 -19 58
-20 1077 -20 1019 0 1046 1 1077 20 67 40 63 -30 63 1122 0 1017 -1 1044 -20
1075 -40 67 30 63 -1122 63 -1017 0 -1044 -1 -1075 -20z m2097 -1120 l0 -1020
-1020 0 -1020 0 0 130 0 130 44 0 c77 0 76 -3 76 284 0 285 2 278 -75 278
l-45 0 0 197 0 197 46 1 c26 1 52 7 58 13 7 7 12 96 14 264 3 289 4 286 -74
286 l-44 0 0 130 0 130 1020 0 1020 0 0 -1020z m-2040 480 l0 -160 -65 0 -65
0 0 160 0 160 65 0 65 0 0 -160z m0 -961 l0 -159 -65 0 -65 0 0 163 0 162 65
-3 65 -4 0 -159z"/>
<path d="M1294 2066 c-15 -12 -20 -30 -24 -101 l-5 -87 -72 -19 c-81 -20 -118
-37 -184 -84 l-46 -33 -69 69 c-73 74 -106 86 -137 51 -34 -37 -22 -72 49
-143 l67 -67 -22 -30 c-37 -52 -79 -151 -92 -217 l-13 -65 -81 0 c-98 0 -125
-14 -125 -65 0 -51 27 -65 126 -65 l82 0 7 -42 c12 -68 43 -149 81 -212 l36
-58 -66 -67 c-53 -54 -66 -73 -66 -98 0 -33 29 -63 59 -63 8 0 47 32 87 70
l72 71 62 -40 c58 -38 195 -91 233 -91 15 0 17 -11 17 -83 0 -74 3 -86 23
-105 30 -28 58 -28 85 1 17 18 22 37 24 101 l3 79 73 19 c69 17 149 53 215 95
l27 18 67 -68 c36 -37 74 -67 84 -67 28 0 59 36 59 68 0 21 -15 43 -60 87 -33
33 -60 63 -60 68 0 5 11 23 24 40 39 53 65 113 85 195 l18 77 80 5 c91 6 113
18 113 65 0 50 -24 64 -114 67 l-79 3 -13 62 c-14 71 -42 138 -86 206 l-31 48
62 63 c66 70 78 108 43 139 -33 30 -61 20 -132 -48 l-67 -65 -59 38 c-69 45
-117 65 -196 82 l-58 11 0 80 c0 66 -3 82 -20 99 -23 23 -58 26 -86 6z m171
-331 c85 -23 151 -62 217 -129 70 -71 103 -136 124 -240 32 -157 -15 -307
-133 -425 -77 -77 -124 -104 -215 -126 -194 -46 -372 19 -495 180 -65 85 -93
169 -93 280 0 141 49 254 152 350 119 110 283 151 443 110z"/>
<path d="M1166 1460 c-15 -5 -36 -16 -46 -25 -16 -15 -18 -14 -23 5 -4 15 -13
20 -36 20 l-31 0 0 -165 0 -165 35 0 35 0 0 104 c0 101 1 105 29 135 30 32 59
39 79 19 8 -8 12 -53 12 -135 l0 -123 40 0 40 0 0 124 c0 147 -10 183 -56 202
-37 16 -38 16 -78 4z"/>
<path d="M1482 1461 c-44 -11 -70 -37 -83 -82 -9 -30 -9 -43 5 -69 14 -29 14
-35 1 -53 -19 -28 -19 -71 0 -87 13 -11 12 -16 -10 -42 -31 -37 -32 -59 -2
-92 29 -34 107 -49 177 -36 63 12 94 32 111 71 27 67 -29 119 -129 119 -63 0
-92 13 -92 40 0 18 5 19 39 14 79 -13 150 33 153 98 1 19 -2 40 -6 46 -5 8 2
12 18 12 22 0 26 4 26 30 0 30 0 30 -59 30 -32 0 -71 2 -87 4 -16 3 -44 1 -62
-3z m86 -63 c16 -16 15 -73 0 -85 -44 -35 -98 -12 -98 41 0 40 15 56 55 56 17
0 36 -5 43 -12z m36 -291 c26 -44 -99 -81 -138 -41 -19 18 -19 20 -5 45 9 17
19 20 71 17 46 -2 64 -7 72 -21z"/>
</g>
</svg>
